<mxfile host="app.diagrams.net" modified="2024-01-21T15:47:19.744Z" agent="Mozilla/5.0 (Macintosh; Intel Mac OS X 10_15_7) AppleWebKit/537.36 (KHTML, like Gecko) Chrome/120.0.0.0 Safari/537.36" version="22.1.21" etag="dlh9w81uL2tcWn9sncPq" type="github">
  <diagram name="第 1 页" id="jhO5NhgoIZsw4oM-Iyyo">
    <mxGraphModel>
      <root>
        <mxCell id="0" />
        <mxCell id="1" parent="0" />
      </root>
    </mxGraphModel>
  </diagram>
</mxfile>
